<?xml version="1.0" encoding="utf-8"?>
<!-- Generator: Adobe Illustrator 23.0.4, SVG Export Plug-In . SVG Version: 6.00 Build 0)  -->
<!DOCTYPE svg PUBLIC "-//W3C//DTD SVG 1.1//EN" "http://www.w3.org/Graphics/SVG/1.1/DTD/svg11.dtd" [
	<!ENTITY ns_extend "http://ns.adobe.com/Extensibility/1.0/">
	<!ENTITY ns_ai "http://ns.adobe.com/AdobeIllustrator/10.0/">
	<!ENTITY ns_graphs "http://ns.adobe.com/Graphs/1.0/">
	<!ENTITY ns_vars "http://ns.adobe.com/Variables/1.0/">
	<!ENTITY ns_imrep "http://ns.adobe.com/ImageReplacement/1.0/">
	<!ENTITY ns_sfw "http://ns.adobe.com/SaveForWeb/1.0/">
	<!ENTITY ns_custom "http://ns.adobe.com/GenericCustomNamespace/1.0/">
	<!ENTITY ns_adobe_xpath "http://ns.adobe.com/XPath/1.0/">
]>
<svg version="1.1" id="Layer_1" xmlns:x="&ns_extend;" xmlns:i="&ns_ai;" xmlns:graph="&ns_graphs;"
	 xmlns="http://www.w3.org/2000/svg" xmlns:xlink="http://www.w3.org/1999/xlink" x="0px" y="0px" viewBox="0 0 146.1 72.3"
	 enable-background="new 0 0 146.1 72.3" xml:space="preserve">
<metadata>
	<sfw  xmlns="&ns_sfw;">
		<slices></slices>
		<sliceSourceBounds  bottomLeftOrigin="true" height="72.3" width="146.1" x="2.6" y="3"></sliceSourceBounds>
	</sfw>
</metadata>
<g transform="matrix(1.25,0,0,-1.25,0,76.25)">
	<g transform="scale(.24)">
		<path fill="#854F23" d="M98.2,135.6L95,118.3c13.9-9,25.4-22.2,32.1-36.5C134,67,125.9,50.5,114.7,37c-2.7-3.3-5.3-7.2-4.5-12.1
			c10.2,5.1,19.2,9.7,26.7,18.5c0-4.1-1.1-8.7,0.6-12.1c0.4-0.8,4.7-0.8,5,0c9.8,25,1.4,54.3,13.5,76.5L98.2,135.6"/>
		<path fill="none" stroke="#FFFFFF" stroke-width="2.5" d="M98.2,135.6L95,118.3c13.9-9,25.4-22.2,32.1-36.5
			C134,67,125.9,50.5,114.7,37c-2.7-3.3-5.3-7.2-4.5-12.1c10.2,5.1,19.2,9.7,26.7,18.5c0-4.1-1.1-8.7,0.6-12.1c0.4-0.8,4.7-0.8,5,0
			c9.8,25,1.4,54.3,13.5,76.5L98.2,135.6L98.2,135.6z"/>
		<path fill="#854F23" d="M153.1,110.7c26.9-15.8,54.9-24.1,83-33.8c-3.4-20.4-21.8-31.9-32.9-47.3c-3.6-5.9,9.8,2.1,14.4,4.1
			c-1.7-3.7-8.7-9.3-6.2-10.3c2.1-3.9,18.6,7.8,24.7,16.5c0-4.8-8.7-21.1,0-14.4c13.8,18.6,23.4,39.6,33.7,60.3
			c4,8.1-9.8,8.9-13.2,15.8c-4.5,9.2-8.9,18.2-8.2,28.8L153.1,110.7"/>
		<path fill="none" stroke="#FFFFFF" stroke-width="2.5" d="M153.1,110.7c26.9-15.8,54.9-24.1,83-33.8
			c-3.4-20.4-21.8-31.9-32.9-47.3c-3.6-5.9,9.8,2.1,14.4,4.1c-1.7-3.7-8.7-9.3-6.2-10.3c2.1-3.9,18.6,7.8,24.7,16.5
			c0-4.8-8.7-21.1,0-14.4c13.8,18.6,23.4,39.6,33.7,60.3c4,8.1-9.8,8.9-13.2,15.8c-4.5,9.2-8.9,18.2-8.2,28.8L153.1,110.7
			L153.1,110.7z"/>
		<path fill="#854F23" d="M93.1,178c1.5,4.5-1,8.9-2.9,11.8c-6.6,10-6.7,19.3-13.6,29c-6.4,9-15.8,18.9-26.7,23
			c-4.6-37.5,13.3-44.8,22.6-65.8c-13.2-15.9-24.7-32.6-38.2-48.4c-1.7-2-3.6-5.7-6.8-7.6c-2.3-1.4-3-5-4.4-7.8
			c-4.1,2.4-9.5,0.7-11.6-0.9C5,106.2,1,97,7.4,90.2c4.6-5,13.9-4.7,19.3-1.7C47.5,100,67.4,108.7,89,118.1
			c15,6.5,31.8,2.8,44.3-5.3c13.9-9,25.4-22.2,32.1-36.5c6.9-14.8-1.1-31.3-12.4-44.7c-2.7-3.3-5.3-7.2-4.4-12.1
			c10.2,5.1,19.2,9.7,26.7,18.5c0-4.1-1.1-8.7,0.6-12.1c0.4-0.8,4.7-0.8,5,0c9.8,25,1.4,54.3,13.5,76.5c2.2,4.1,17.3,9.2,25.5,4.4
			c26.9-15.8,54.9-24.1,83-33.8c-3.4-20.4-21.8-31.9-32.9-47.3c-3.6-5.9,9.8,2.1,14.4,4.1c-1.7-3.7-8.7-9.3-6.2-10.3
			c2.1-3.9,18.6,7.8,24.7,16.5c0-4.8-8.7-21.1,0-14.4c13.8,18.6,23.4,39.6,33.7,60.3c4,8.1-9.8,8.9-13.2,15.8
			c-4.5,9.2-8.9,18.2-8.2,28.8c9-20.5,24-36.8,41.6-50.9c38.2-30.4,80.5-53.2,129.1-54.1c-50.1,11.3-93.4,44.2-122.8,88.9
			c-31.2,47.3-40.4,116.3-103.7,125.8c-47.6,7.2-86.8-19.2-126.3-46.5C119.9,180.6,109.9,176.4,93.1,178"/>
		<path fill="none" stroke="#FFFFFF" stroke-width="2.5" d="M93.1,178c1.5,4.5-1,8.9-2.9,11.8c-6.6,10-6.7,19.3-13.6,29
			c-6.4,9-15.8,18.9-26.7,23c-4.6-37.5,13.3-44.8,22.6-65.8c-13.2-15.9-24.7-32.6-38.2-48.4c-1.7-2-3.6-5.7-6.8-7.6
			c-2.3-1.4-3-5-4.4-7.8c-4.1,2.4-9.5,0.7-11.6-0.9C5,106.2,1,97,7.4,90.2c4.6-5,13.9-4.7,19.3-1.7C47.5,100,67.4,108.7,89,118.1
			c15,6.5,31.8,2.8,44.3-5.3c13.9-9,25.4-22.2,32.1-36.5c6.9-14.8-1.1-31.3-12.4-44.7c-2.7-3.3-5.3-7.2-4.4-12.1
			c10.2,5.1,19.2,9.7,26.7,18.5c0-4.1-1.1-8.7,0.6-12.1c0.4-0.8,4.7-0.8,5,0c9.8,25,1.4,54.3,13.5,76.5c2.2,4.1,17.3,9.2,25.5,4.4
			c26.9-15.8,54.9-24.1,83-33.8c-3.4-20.4-21.8-31.9-32.9-47.3c-3.6-5.9,9.8,2.1,14.4,4.1c-1.7-3.7-8.7-9.3-6.2-10.3
			c2.1-3.9,18.6,7.8,24.7,16.5c0-4.8-8.7-21.1,0-14.4c13.8,18.6,23.4,39.6,33.7,60.3c4,8.1-9.8,8.9-13.2,15.8
			c-4.5,9.2-8.9,18.2-8.2,28.8c9-20.5,24-36.8,41.6-50.9c38.2-30.4,80.5-53.2,129.1-54.1c-50.1,11.3-93.4,44.2-122.8,88.9
			c-31.2,47.3-40.4,116.3-103.7,125.8c-47.6,7.2-86.8-19.2-126.3-46.5C119.9,180.6,109.9,176.4,93.1,178L93.1,178z"/>
		<path fill="#854F23" d="M108,156.4c11.3,8.2,7.8,26.6,4.8,42c-3.4,17.4-6.5,35.3-19.7,47.5c-4.8-29.4-16.7-60.3-2.1-88.5"/>
		<path fill="none" stroke="#FFFFFF" stroke-width="2.5" d="M108,156.4c11.3,8.2,7.8,26.6,4.8,42c-3.4,17.4-6.5,35.3-19.7,47.5
			c-4.8-29.4-16.7-60.3-2.1-88.5"/>
	</g>
</g>
</svg>
